<svg width="24" height="24" viewBox="0 0 24 24" fill="none" xmlns="http://www.w3.org/2000/svg">
<g clip-path="url(#clip0_29_234)">
<mask id="mask0_29_234" style="mask-type:luminance" maskUnits="userSpaceOnUse" x="0" y="0" width="24" height="24">
<path d="M0 0H24V24H0V0Z" fill="white"/>
</mask>
<g mask="url(#mask0_29_234)">
<path d="M13.301 5.601C12.673 4.073 12.761 2.354 13.668 0.971L14.346 0C13.092 2.35 14.286 5.236 16.206 6.749C16.7198 7.15111 17.2925 7.47154 17.904 7.699C18.068 7.759 18.254 7.823 18.424 7.866C20.57 8.406 22.319 8.033 23.36 6.477C23.328 6.525 23.287 6.601 23.235 6.697C22.771 7.557 21.413 10.074 17.475 9.284C17.4 9.269 17.328 9.244 17.256 9.221L17.192 9.199L17.146 9.184C17.1248 9.17666 17.1034 9.16966 17.082 9.163C17.0237 9.14293 16.9657 9.12192 16.908 9.1C15.323 8.496 13.964 7.224 13.301 5.601Z" fill="#9747FF"/>
<path d="M8.12 2.96598C6.583 5.26098 6.667 8.33398 7.866 10.762C8.08769 11.2138 8.34238 11.6486 8.628 12.063C8.837 12.376 9.067 12.723 9.336 12.965C9.447 13.092 9.563 13.215 9.681 13.336L9.749 13.406L9.772 13.429C9.89138 13.5497 10.0137 13.6674 10.139 13.782L10.14 13.783L10.142 13.785C10.2932 13.9217 10.4482 14.0541 10.607 14.182L10.647 14.214C10.787 14.326 10.93 14.436 11.077 14.541L11.083 14.545L11.09 14.55C11.137 14.584 11.185 14.617 11.233 14.649L11.286 14.685C11.3174 14.7057 11.3484 14.7271 11.379 14.749C11.484 14.819 11.59 14.886 11.698 14.952L11.728 14.969L11.743 14.979C11.8588 15.048 11.9758 15.115 12.094 15.18L12.125 15.196L12.165 15.218C12.217 15.246 12.269 15.275 12.323 15.302L12.353 15.317C12.5077 15.3957 12.6644 15.4704 12.823 15.541L12.855 15.554C13.0038 15.6195 13.1542 15.6815 13.306 15.74L13.336 15.751C13.439 15.791 13.542 15.827 13.646 15.863L13.698 15.881L13.786 15.91C13.825 15.922 13.864 15.936 13.902 15.949C14.011 15.987 14.12 16.024 14.234 16.044C22.168 17.408 24 11.068 24 11.068C22.349 13.536 19.151 14.714 15.739 13.794C15.5879 13.7527 15.4379 13.7077 15.289 13.659C15.2487 13.6465 15.2087 13.6332 15.169 13.619L15.154 13.614C15.0486 13.5786 14.9439 13.5413 14.84 13.502L14.837 13.5C14.6644 13.4347 14.4937 13.3646 14.325 13.29L14.269 13.265C14.0724 13.1761 13.8789 13.0804 13.689 12.978L13.647 12.956L13.527 12.892C13.4174 12.8308 13.3091 12.7674 13.202 12.702C12.9905 12.5728 12.7837 12.436 12.582 12.292C12.4363 12.1868 12.2933 12.0781 12.153 11.966L12.118 11.937C12.0976 11.9204 12.0772 11.9038 12.057 11.887C10.563 10.663 9.379 8.98998 8.817 7.09398C8.227 5.12598 8.354 2.91798 9.376 1.12598L8.12 2.96598Z" fill="#9747FF"/>
<path d="M1.52401 5.637C-0.59999 8.807 -0.335991 12.932 1.28701 16.3C1.31701 16.365 1.35001 16.429 1.38201 16.492L1.40601 16.54L1.43601 16.599C1.46116 16.6514 1.48784 16.7031 1.51601 16.754L1.52901 16.779L1.59901 16.909L1.61401 16.936C1.66401 17.028 1.71601 17.12 1.76901 17.212L1.78601 17.242C1.86615 17.3818 1.94984 17.5195 2.03701 17.655L2.05501 17.685L2.11401 17.778C2.19801 17.908 2.28401 18.039 2.37401 18.168V18.169C2.37614 18.1722 2.37848 18.1752 2.38101 18.178L2.40501 18.211L2.42501 18.239C2.50301 18.349 2.58201 18.459 2.66301 18.567L2.75301 18.685C2.94902 18.939 3.15176 19.1878 3.36101 19.431L3.36701 19.438L3.37201 19.443L3.37901 19.451C3.59116 19.69 3.8106 19.9225 4.03701 20.148L4.06701 20.178L4.13801 20.248C4.25134 20.3588 4.36669 20.4675 4.48401 20.574L4.51701 20.604L4.54301 20.626C4.66816 20.7377 4.79484 20.8477 4.92301 20.956L4.97901 21.003C5.06401 21.073 5.15001 21.143 5.23701 21.211L5.37401 21.32C5.47001 21.393 5.56601 21.465 5.66301 21.535L5.67901 21.547L5.76901 21.613L5.79701 21.633C5.88501 21.697 5.97401 21.757 6.06401 21.817L6.07801 21.827C6.11836 21.8542 6.15837 21.8818 6.19801 21.91C6.36495 22.0196 6.53398 22.1259 6.70501 22.229L6.75901 22.261C6.91042 22.3504 7.06345 22.4371 7.21801 22.521L7.27101 22.55L7.33001 22.582C7.38901 22.614 7.44701 22.646 7.50701 22.677L7.53201 22.689L7.56201 22.704L7.59601 22.721C7.61601 22.731 7.63701 22.741 7.65801 22.753C7.78201 22.814 7.90601 22.874 8.03201 22.933L8.07901 22.954L8.11101 22.969C8.4235 23.1113 8.74141 23.2414 9.06401 23.359L9.07401 23.362L9.11601 23.378C9.34398 23.46 9.57406 23.536 9.80601 23.606C9.92201 23.645 10.039 23.683 10.159 23.706C20.436 25.652 23.421 17.296 23.421 17.296C20.914 20.686 16.464 21.581 12.247 20.585C12.0883 20.5465 11.9315 20.5008 11.777 20.448L11.659 20.411C11.507 20.363 11.356 20.311 11.206 20.258L11.144 20.235C11.009 20.185 10.877 20.135 10.744 20.081L10.632 20.035C10.4872 19.9757 10.3435 19.9137 10.201 19.849L10.155 19.829C10.0195 19.7661 9.88483 19.7014 9.75101 19.635L9.71001 19.613C9.68861 19.6028 9.66728 19.5925 9.64601 19.582L9.43201 19.469L9.36401 19.433C9.34175 19.4209 9.31942 19.4089 9.29701 19.397L9.17701 19.331C9.06301 19.268 8.95101 19.201 8.83901 19.134L8.79601 19.109L8.72601 19.069C8.55193 18.9616 8.3799 18.8509 8.21001 18.737L8.16701 18.707C7.74023 18.4224 7.33114 18.1122 6.94201 17.778C6.82312 17.6775 6.70577 17.5751 6.59001 17.471L6.57401 17.456C6.422 17.3162 6.27264 17.1735 6.12601 17.028C6.04132 16.9443 5.95798 16.8593 5.87601 16.773L5.84201 16.739C5.71249 16.6036 5.5858 16.4656 5.46201 16.325L5.45601 16.319L5.45401 16.316C5.34801 16.196 5.24401 16.072 5.14201 15.948L5.06001 15.847C4.95533 15.7172 4.85298 15.5855 4.75301 15.452C4.66501 15.332 4.57801 15.214 4.49301 15.093C2.15301 11.779 1.31201 7.207 3.18301 3.453L1.52401 5.637Z" fill="#9747FF"/>
</g>
</g>
<defs>
<clipPath id="clip0_29_234">
<rect width="24" height="24" fill="white"/>
</clipPath>
</defs>
</svg>
