 <svg className='' width="26" height="23" viewBox="0 0 26 23" fill="none" xmlns="http://www.w3.org/2000/svg">
    <path d="M20.8649 15.2601C20.5948 15.3528 20.3224 15.4386 20.048 15.5176C20.0941 15.7059 20.1366 15.892 20.1742 16.0748C20.7926 19.0765 20.3884 21.4947 19.0076 22.2909C17.6837 23.0542 15.5187 22.2583 13.3321 20.3553C13.1166 20.1675 12.9059 19.9742 12.7001 19.7756C12.5624 19.9077 12.4223 20.0371 12.2797 20.1639C9.98809 22.1986 7.69108 23.0562 6.31181 22.2577C4.98914 21.4921 4.59748 19.2187 5.15419 16.3739C5.20957 16.0922 5.27211 15.8119 5.34174 15.5333C5.0166 15.441 4.70285 15.3426 4.40259 15.2379C1.71582 14.3012 0 12.8332 0 11.3105C0 9.73779 1.84201 8.16036 4.6404 7.20387C4.86727 7.12664 5.09604 7.05508 5.32647 6.98925C5.25163 6.68922 5.18519 6.38716 5.12722 6.08342C4.59649 3.28799 5.01095 1.06841 6.33005 0.307596C7.69247 -0.478097 9.97917 0.329403 12.2057 2.27579C12.3862 2.43403 12.5628 2.59675 12.7352 2.7638C12.958 2.54884 13.1868 2.34012 13.4212 2.1379C15.578 0.282021 17.7081 -0.46739 19.0259 0.295503C20.3871 1.08348 20.8295 3.46791 20.2551 6.36891C20.2099 6.59618 20.1591 6.82233 20.103 7.04715C20.2636 7.09473 20.4212 7.1437 20.5748 7.19465C23.484 8.15847 25.3769 9.71678 25.3769 11.3105C25.3769 12.8387 23.6057 14.3166 20.8649 15.2601ZM20.2339 8.2236C20.0951 8.17771 19.9528 8.13339 19.8077 8.09027C19.4865 9.10704 19.0531 10.1881 18.5227 11.3052C19.0288 12.3956 19.4455 13.4629 19.7577 14.4731C20.0173 14.3979 20.2692 14.3187 20.5121 14.2352C22.8604 13.4267 24.2928 12.2315 24.2928 11.3105C24.2928 10.3295 22.7458 9.05598 20.2339 8.2236ZM19.1917 6.15836C19.4456 4.87564 19.4818 3.71583 19.3136 2.8091C19.1625 1.99437 18.8586 1.45124 18.4827 1.23365C17.683 0.770724 15.9728 1.37243 14.1283 2.95968C13.9102 3.14769 13.6975 3.34173 13.4902 3.54156C14.2053 4.32359 14.9199 5.2327 15.6174 6.24242C16.8442 6.35126 18.0032 6.5293 19.0543 6.77226C19.1049 6.56874 19.1507 6.36405 19.1917 6.15836ZM8.65154 1.31365C7.87021 1.03778 7.24788 1.02985 6.87169 1.24674C6.07122 1.70838 5.73845 3.49061 6.19236 5.88119C6.24632 6.16368 6.3081 6.44462 6.37763 6.72369C7.41709 6.49371 8.56768 6.32836 9.79737 6.22864C10.4996 5.24063 11.2348 4.33251 11.9758 3.5373C11.8183 3.38493 11.6571 3.23645 11.4924 3.09202C10.5077 2.23138 9.52109 1.62075 8.65154 1.31365ZM4.99112 8.22965C3.7537 8.65263 2.73178 9.2023 2.03134 9.80212C1.40188 10.3411 1.08417 10.8763 1.08417 11.3105C1.08417 12.2345 2.46176 13.4132 4.75946 14.2142C5.03831 14.3114 5.33014 14.4031 5.63298 14.4891C5.95059 13.4562 6.36712 12.3762 6.8698 11.2841C6.36058 10.1758 5.93809 9.07859 5.61741 8.03347C5.40707 8.09372 5.19825 8.15914 4.99112 8.22965ZM6.21813 16.5822C5.74123 19.0195 6.05794 20.858 6.85503 21.3195C7.70397 21.8109 9.58127 21.1102 11.56 19.3533C11.689 19.2384 11.8159 19.1213 11.9407 19.0018C11.2034 18.2101 10.4749 17.3087 9.77893 16.3266C8.58542 16.2159 7.44296 16.0383 6.3926 15.8003C6.32788 16.0594 6.26971 16.3202 6.21813 16.5822ZM17.1646 13.8792C16.9165 14.3077 16.6592 14.7309 16.3929 15.1483C17.2026 15.0459 17.9783 14.91 18.7068 14.7439C18.4882 14.0428 18.2156 13.31 17.8947 12.5586C17.6601 13.0036 17.4167 13.4439 17.1646 13.8792ZM12.7006 18.2271C13.2006 17.6853 13.7014 17.0805 14.194 16.4243C13.1948 16.4715 12.1939 16.4717 11.1947 16.4249C11.6877 17.0751 12.1928 17.6791 12.7006 18.2271ZM8.20804 13.8717C7.95906 13.44 7.7202 13.0024 7.49164 12.5595C7.17601 13.3082 6.90589 14.0444 6.68533 14.7554C7.40936 14.9174 8.18147 15.0498 8.986 15.1503C8.71671 14.7303 8.45732 14.3039 8.20804 13.8717ZM9.0091 7.3935C8.1779 7.48628 7.39419 7.61188 6.67036 7.76949C6.89439 8.49313 7.17046 9.24502 7.49293 10.0098C7.72239 9.56654 7.96225 9.12873 8.2123 8.69674C8.46944 8.25265 8.7357 7.81767 9.0091 7.3935ZM12.7306 4.31754C12.2167 4.87187 11.7042 5.48518 11.2037 6.14478C11.6896 6.12574 12.185 6.11603 12.6884 6.11603C13.2057 6.11603 13.717 6.12763 14.2203 6.15003C13.7261 5.47854 13.2272 4.86433 12.7306 4.31754ZM17.9049 10.0489C18.2441 9.27565 18.53 8.52773 18.757 7.81648C18.0213 7.64856 17.2268 7.51335 16.3898 7.41293C16.658 7.83814 16.9178 8.26864 17.1689 8.70418C17.4241 9.14689 17.6696 9.59522 17.9049 10.0489ZM16.2298 9.24581C15.8454 8.57805 15.4394 7.92296 15.0124 7.28158C14.239 7.2268 13.4638 7.19959 12.6884 7.2C11.8987 7.2 11.1305 7.22459 10.3908 7.27256C9.95272 7.91246 9.53896 8.56869 9.15045 9.23987C8.76377 9.90749 8.40268 10.5896 8.06777 11.2846C8.40183 11.9798 8.76192 12.6622 9.14728 13.3303L9.14718 13.3302C9.53239 13.9985 9.94285 14.6519 10.3777 15.2891C11.1323 15.3462 11.9062 15.3759 12.6883 15.3759C13.474 15.3759 14.249 15.3459 15.0035 15.2884C15.4339 14.6522 15.8418 14.001 16.2262 13.3361C16.6129 12.6694 16.9777 11.9903 17.3202 11.3C16.9813 10.6025 16.6176 9.91737 16.2298 9.24581ZM18.4662 21.3518C19.3159 20.8617 19.6464 18.8854 19.1125 16.2937C19.0784 16.1283 19.0401 15.9599 18.9985 15.7891C17.9455 16.0322 16.8023 16.2129 15.6053 16.3252C14.908 17.3181 14.1855 18.2209 13.4602 19.0024C13.6503 19.1857 13.8449 19.3642 14.0438 19.5377C15.9174 21.1681 17.6684 21.8118 18.4662 21.3518ZM12.6884 13.5765C13.9399 13.5765 14.9545 12.562 14.9545 11.3105C14.9545 10.059 13.9399 9.04439 12.6884 9.04439C11.437 9.04439 10.4224 10.059 10.4224 11.3105C10.4224 12.562 11.437 13.5765 12.6884 13.5765Z" fill="#00D8FF"/>
</svg>