<svg width="25" height="15" viewBox="0 0 25 15" fill="none" xmlns="http://www.w3.org/2000/svg">
<g clip-path="url(#clip0_30_273)">
<path d="M12.4675 0C9.14289 0 7.0649 1.66237 6.23377 4.98701C7.48052 3.32464 8.93503 2.70127 10.5974 3.11688C11.5458 3.35396 12.2237 4.04211 12.9741 4.8037C14.1965 6.04451 15.6112 7.48052 18.7013 7.48052C22.0259 7.48052 24.1039 5.81815 24.9351 2.49351C23.6883 4.15588 22.2338 4.77925 20.5714 4.36364C19.623 4.12656 18.9451 3.43841 18.1947 2.67682C16.9723 1.43601 15.5576 0 12.4675 0ZM6.23377 7.48052C2.90912 7.48052 0.831136 9.14289 0 12.4675C1.24675 10.8052 2.70127 10.1818 4.36364 10.5974C5.31205 10.8345 5.98997 11.5226 6.74036 12.2842C7.96276 13.525 9.37743 14.961 12.4675 14.961C15.7922 14.961 17.8702 13.2987 18.7013 9.97403C17.4545 11.6364 16 12.2598 14.3377 11.8442C13.3893 11.6071 12.7113 10.9189 11.9609 10.1573C10.7385 8.91653 9.32386 7.48052 6.23377 7.48052Z" fill="url(#paint0_linear_30_273)"/>
</g>
<defs>
<linearGradient id="paint0_linear_30_273" x1="-69.2696" y1="478.753" x2="2084.28" y2="1720.45" gradientUnits="userSpaceOnUse">
<stop stop-color="#2298BD"/>
<stop offset="1" stop-color="#0ED7B5"/>
</linearGradient>
<clipPath id="clip0_30_273">
<rect width="24.9351" height="15" fill="white"/>
</clipPath>
</defs>
</svg>
